<svg width="500" height="382" viewBox="0 0 500 382" fill="none" xmlns="http://www.w3.org/2000/svg">
<path d="M423.269 31.59C390.854 16.7121 356.646 6.10296 321.501 0.0284293C321.18 -0.0340073 320.848 0.00699767 320.552 0.145534C320.256 0.284071 320.012 0.512977 319.855 0.799239C315.48 8.61151 310.605 18.7987 307.189 26.8402C269.303 21.0858 230.765 21.0858 192.879 26.8402C189.077 17.93 184.786 9.2365 180.026 0.799239C179.861 0.519388 179.616 0.295905 179.322 0.158289C179.029 0.0206728 178.7 -0.0246064 178.38 0.0284293C143.232 6.09034 109.022 16.6999 76.612 31.59C76.3376 31.7051 76.1049 31.9014 75.9453 32.1525C11.1139 129.004 -6.65646 223.459 2.07245 316.728C2.09366 316.959 2.16187 317.184 2.27291 317.388C2.38396 317.592 2.5355 317.771 2.71827 317.915C40.4587 345.877 82.6766 367.222 127.569 381.038C127.885 381.13 128.222 381.123 128.535 381.019C128.847 380.915 129.121 380.718 129.319 380.455C138.943 367.33 147.527 353.477 154.86 338.914C154.962 338.716 155.021 338.497 155.033 338.274C155.045 338.05 155.009 337.827 154.929 337.618C154.848 337.41 154.724 337.221 154.565 337.063C154.406 336.906 154.215 336.784 154.006 336.706C140.536 331.552 127.495 325.338 115.007 318.123C114.778 317.991 114.585 317.804 114.446 317.579C114.307 317.354 114.225 317.099 114.209 316.835C114.192 316.571 114.241 316.307 114.351 316.067C114.461 315.826 114.629 315.617 114.84 315.457C117.47 313.489 120.054 311.461 122.59 309.374C122.812 309.194 123.079 309.079 123.362 309.042C123.646 309.005 123.933 309.048 124.194 309.165C206.025 346.518 294.606 346.518 375.478 309.165C375.741 309.044 376.033 308.999 376.321 309.036C376.608 309.073 376.879 309.19 377.103 309.374C379.603 311.415 382.228 313.499 384.874 315.457C385.082 315.614 385.249 315.82 385.36 316.056C385.47 316.292 385.522 316.552 385.51 316.813C385.497 317.073 385.422 317.327 385.289 317.552C385.156 317.777 384.971 317.966 384.749 318.103C372.289 325.385 359.236 331.601 345.729 336.685C345.519 336.766 345.328 336.89 345.169 337.049C345.009 337.208 344.886 337.399 344.805 337.609C344.724 337.82 344.689 338.045 344.701 338.269C344.713 338.494 344.772 338.714 344.875 338.914C352.375 353.456 360.958 367.289 370.395 380.434C370.589 380.702 370.863 380.902 371.176 381.007C371.49 381.112 371.829 381.115 372.145 381.017C417.112 367.244 459.399 345.896 497.183 317.894C497.367 317.764 497.521 317.597 497.636 317.403C497.751 317.209 497.824 316.993 497.85 316.769C508.266 208.918 480.392 115.233 423.914 32.1942C423.782 31.9141 423.553 31.6919 423.269 31.5692V31.59ZM167.089 259.917C142.443 259.917 122.152 237.313 122.152 209.522C122.152 181.752 142.068 159.128 167.089 159.128C192.296 159.128 212.421 181.961 212.025 209.543C212.025 237.313 192.109 259.917 167.089 259.917V259.917ZM333.23 259.917C308.584 259.917 288.293 237.313 288.293 209.522C288.293 181.752 308.189 159.128 333.23 159.128C358.437 159.128 378.562 181.961 378.166 209.543C378.166 237.313 358.458 259.917 333.23 259.917V259.917Z" fill="black"/>
</svg>
