<svg width="500" height="490" viewBox="0 0 500 490" fill="none" xmlns="http://www.w3.org/2000/svg">
<path d="M250.028 2.10286e-05C111.887 -0.0561358 0 112.37 0 251.133C0 360.863 69.9922 454.14 167.467 488.396C180.594 491.709 178.583 482.331 178.583 475.929V432.407C102.782 441.336 99.7095 390.907 94.6263 382.484C84.3481 364.851 60.0492 360.358 67.3109 351.935C84.5716 343.006 102.167 354.181 122.556 384.449C137.303 406.407 166.071 402.7 180.65 399.05C183.834 385.853 190.649 374.06 200.034 364.907C121.495 350.755 88.761 302.573 88.761 245.293C88.761 217.495 97.8662 191.944 115.741 171.334C104.346 137.36 116.803 108.27 118.478 103.946C150.933 101.026 184.672 127.307 187.298 129.385C205.731 124.387 226.79 121.748 250.363 121.748C274.048 121.748 295.163 124.5 313.764 129.554C320.076 124.724 351.357 102.149 381.522 104.901C383.142 109.225 395.319 137.64 384.594 171.166C402.692 191.832 411.909 217.608 411.909 245.461C411.909 302.854 378.952 351.092 300.19 365.019C306.936 371.689 312.293 379.643 315.947 388.417C319.601 397.191 321.479 406.61 321.472 416.122V479.298C321.919 484.352 321.472 489.35 329.851 489.35C428.779 455.825 500 361.874 500 251.189C500 112.37 388.057 2.10286e-05 250.028 2.10286e-05V2.10286e-05Z" fill="black"/>
</svg>
